<?xml version="1.0" encoding="UTF-8"?>
<svg width="20px" height="20px" viewBox="0 0 20 20" version="1.1" xmlns="http://www.w3.org/2000/svg" xmlns:xlink="http://www.w3.org/1999/xlink">
    <!-- Generator: Sketch 52.2 (67145) - http://www.bohemiancoding.com/sketch -->
    <title>禁用</title>
    <desc>Created with Sketch.</desc>
    <g id="Page-1" stroke="none" stroke-width="1" fill="none" fill-rule="evenodd">
        <g id="2客户管理" transform="translate(-1727.000000, -378.000000)" fill="#666666" fill-rule="nonzero">
            <g id="禁用" transform="translate(1727.000000, 378.000000)">
                <g id="形状">
                    <path d="M10.0003125,0.000429688 C4.477407,0.000429688 0.000214844,4.47764138 0.000214844,10.0004297 C0.000214844,15.5233352 4.477407,20.0004297 10.0003125,20.0004297 C15.5231203,20.0004297 20.0002148,15.5233157 20.0002148,10.0004297 C20.0002148,4.47762185 15.5231008,0.000429688 10.0003125,0.000429688 Z M18.0003125,10.0004297 C18.0003125,11.5413236 17.5645465,12.9803807 16.8096954,14.2013301 L4.53340364,4.15988437 C5.96367152,2.82053535 7.88617076,2.00042969 10.0003125,2.00042969 C14.4185197,2.00042969 18.0003125,5.58212482 18.0003125,10.0004297 Z M2.0003125,10.0004297 C2.0003125,8.41295325 2.46266077,6.93348567 3.26009043,5.6893329 L15.5614606,15.7512085 C14.1219348,17.1435659 12.1611734,18.0004102 10.0003125,18.0004102 C5.58190998,18.0004102 2.0003125,14.4187346 2.0003125,10.0004102 L2.0003125,10.0004297 Z"></path>
                </g>
            </g>
        </g>
    </g>
</svg>