<?xml version="1.0" encoding="UTF-8"?>
<svg width="20px" height="20px" viewBox="0 0 20 20" version="1.1" xmlns="http://www.w3.org/2000/svg" xmlns:xlink="http://www.w3.org/1999/xlink">
    <!-- Generator: Sketch 52.2 (67145) - http://www.bohemiancoding.com/sketch -->
    <title>删 除</title>
    <desc>Created with Sketch.</desc>
    <g id="Page-1" stroke="none" stroke-width="1" fill="none" fill-rule="evenodd">
        <g id="2客户管理" transform="translate(-1777.000000, -379.000000)" fill="#666666" fill-rule="nonzero">
            <g id="删-除" transform="translate(1777.000000, 379.000000)">
                <path d="M15.613124,16.8285536 C15.613124,17.4999808 15.0659819,18.0471249 14.3945527,18.0471249 L5.613134,18.0471249 C4.93990405,18.0471254 4.39392403,17.5017836 4.39313496,16.8285536 L4.39313496,3.88998984 L15.6131259,3.88998984 L15.6131259,16.8285536 L15.613124,16.8285536 Z M6.83170528,1.70284316 C6.83170528,1.56284327 6.94027668,1.45284336 7.08170508,1.45284336 L12.9402746,1.45284336 C13.081703,1.45284336 13.1902744,1.56284327 13.1902744,1.70284316 L13.1902744,2.43712773 L6.83170528,2.43712773 L6.83170528,1.70284316 Z M19.2688437,2.43712773 L14.6431248,2.43712773 L14.6431248,1.70284316 C14.6431248,0.765701337 13.8788402,-1.289064e-05 12.9402687,-1.289064e-05 L7.08169922,-1.289064e-05 C6.1422155,0.00234275225 5.38119854,0.763359542 5.37884307,1.70284316 L5.37884307,2.43712773 L0.737421025,2.43712773 C0.331886163,2.43712774 0.00313642773,2.76587746 0.00313642773,3.17141229 C0.00313644546,3.57694712 0.331886163,3.90569686 0.737420993,3.90569686 L2.92456767,3.90569686 L2.92456767,16.828538 C2.92456767,18.312822 4.12885186,19.5156843 5.61313972,19.5156843 L14.3931327,19.5156843 C15.8771999,19.5164732 17.080904,18.3140388 17.0817048,16.8299638 C17.0817051,16.8294875 17.0817052,16.8290112 17.0817052,16.8285348 L17.0817052,3.88997104 L19.2688519,3.88997104 C19.6745664,3.88997104 20.0031364,3.56139904 20.0031364,3.15568648 L20.0031364,3.15568157 C20.002423,2.75803736 19.6794902,2.43626222 19.281846,2.43697511 C19.2775123,2.43698289 19.2731788,2.43702979 19.2688459,2.43711581 L19.2688437,2.43712773 Z M10.0031285,15.8442654 C10.408843,15.8442654 10.7374131,15.5156934 10.7374131,15.1099808 L10.7374131,7.29570975 C10.7374131,6.89017492 10.4086633,6.56142519 10.0031285,6.56142519 C9.59759368,6.56142519 9.26884395,6.89017492 9.26884395,7.29570975 L9.26884395,15.1099808 C9.26884395,15.5156953 9.59741595,15.8442654 10.0031285,15.8442654 Z M6.58170548,15.8442654 C6.98742,15.8442654 7.31599005,15.5156934 7.31599005,15.1099808 L7.31599005,7.29570975 C7.31599005,6.89017492 6.98724031,6.56142519 6.58170548,6.56142519 C6.17617066,6.56142519 5.84742092,6.89017492 5.84742092,7.29570975 L5.84742092,15.1099808 C5.86170663,15.5156953 6.19027807,15.8442654 6.58170548,15.8442654 Z M13.4245515,15.8442654 C13.8316938,15.8442654 14.1602658,15.5156934 14.1602658,15.1099808 L14.1602658,7.29570975 C14.1602658,6.88978039 13.8311957,6.56071034 13.4252664,6.56071034 C13.019337,6.56071034 12.690267,6.88978039 12.690267,7.29570975 L12.690267,15.1099808 C12.690267,15.5156953 13.018839,15.8442654 13.4245515,15.8442654 Z" id="形状"></path>
            </g>
        </g>
    </g>
</svg>