<?xml version="1.0" encoding="UTF-8"?>
<svg width="18px" height="18px" viewBox="0 0 18 18" version="1.1" xmlns="http://www.w3.org/2000/svg" xmlns:xlink="http://www.w3.org/1999/xlink">
    <!-- Generator: Sketch 52.2 (67145) - http://www.bohemiancoding.com/sketch -->
    <title>编 辑</title>
    <desc>Created with Sketch.</desc>
    <g id="Page-1" stroke="none" stroke-width="1" fill="none" fill-rule="evenodd">
        <g id="2客户管理" transform="translate(-1671.000000, -380.000000)" fill="#666666" fill-rule="nonzero">
            <g id="编-辑" transform="translate(1671.000000, 380.000000)">
                <path d="M5.68383859,12.1397289 C6.02728573,12.4967978 6.59516631,12.5078414 6.95223703,12.1643938 C6.96061775,12.1563329 6.96884093,12.1481097 6.97690198,12.1397289 L17.0587452,2.05788569 C17.4206499,1.7012772 17.4249425,1.11880627 17.0683332,0.756901552 C17.0651608,0.753682041 17.0619647,0.750485935 17.0587452,0.74731353 C16.7163716,0.390244643 16.1493621,0.378330008 15.7922914,0.720704118 C15.7832362,0.729386627 15.7743644,0.738258407 15.765682,0.747313529 L5.68518308,10.8291567 C5.3232784,11.1857652 5.31898582,11.7682361 5.67559501,12.1301409 C5.67876741,12.1333604 5.68196352,12.1365565 5.68518303,12.1397289 L5.68383859,12.1397289 Z M16.8459358,7.60997643 C16.3448748,7.60997643 15.9205886,8.01405932 15.9205886,8.53532366 L15.9205886,15.919248 L2.07942965,15.919248 L2.07942965,2.07674471 L9.46335398,2.07674471 C9.964415,2.07674471 10.3684979,1.67266182 10.3873551,1.15139749 C10.3873551,0.650336468 9.98327216,0.22605026 9.48221114,0.22605026 L1.15408426,0.22605026 C0.653023245,0.22605026 0.228737037,0.631479303 0.228737037,1.15139749 L0.228737037,16.8432472 L0.22873702,16.8432491 C0.22426093,17.3505658 0.631893628,17.7654547 1.13921029,17.7699315 C1.14416919,17.7699752 1.14912838,17.7699788 1.15408734,17.7699423 L16.8459371,17.7699423 C17.3532593,17.7736754 17.7675516,17.3654358 17.7712843,16.8581136 C17.7713175,16.8536073 17.7713175,16.8491008 17.7712843,16.8445945 L17.7712843,8.53532479 C17.7712843,8.02426984 17.3569921,7.60997756 16.8459371,7.60997756 C16.8459371,7.60997756 16.8459371,7.60997756 16.8459371,7.60997756 L16.8459358,7.60997643 Z" id="形状"></path>
            </g>
        </g>
    </g>
</svg>